<svg width="26" height="26" viewBox="0 0 26 26" fill="none" xmlns="http://www.w3.org/2000/svg">
<path d="M15.2197 24.398C16.0034 24.398 16.5582 23.7238 16.9608 22.6792L24.0885 4.06042C24.2844 3.55992 24.4042 3.11374 24.4042 2.74371C24.4042 2.0366 23.958 1.60156 23.2505 1.60156C22.8804 1.60156 22.4342 1.71021 21.9337 1.90613L3.21745 9.07656C2.30281 9.42478 1.5957 9.9796 1.5957 10.774C1.5957 11.775 2.3576 12.1125 3.40224 12.4282L11.2589 14.7348L13.5441 22.4935C13.8705 23.5925 14.208 24.398 15.2202 24.398M11.7492 13.0815L4.24027 10.7851C4.06617 10.7303 4.01185 10.6867 4.01185 10.6106C4.01185 10.5344 4.05502 10.4806 4.21845 10.4151L18.9303 4.84367C19.8008 4.51728 20.6388 4.08178 21.4439 3.71174C20.7261 4.29953 19.8338 4.99596 19.2353 5.59442L11.7492 13.0815ZM15.3943 22.0046C15.3075 22.0046 15.2638 21.928 15.2095 21.7539L12.9131 14.2459L20.3997 6.75931C20.9875 6.17153 21.7165 5.25735 22.2936 4.51774C21.9235 5.34417 21.488 6.18221 21.151 7.06388L15.5795 21.7757C15.5141 21.9391 15.4704 22.0046 15.3943 22.0046Z" fill="#727272"/>
</svg>
